<svg width="301" height="279" viewBox="0 0 301 279" fill="none" xmlns="http://www.w3.org/2000/svg">
<path d="M261.873 67.9597V78.9464" stroke="#1E1E1E" stroke-linecap="round" stroke-linejoin="round"/>
<path d="M256.393 73.4399H267.354" stroke="#1E1E1E" stroke-linecap="round" stroke-linejoin="round"/>
<path d="M37.1436 25.5676V36.5288" stroke="#1E1E1E" stroke-linecap="round" stroke-linejoin="round"/>
<path d="M31.6377 31.0486H42.6243" stroke="#1E1E1E" stroke-linecap="round" stroke-linejoin="round"/>
<path d="M122.437 4.99625C123.816 4.99625 124.935 3.8778 124.935 2.49812C124.935 1.11845 123.816 0 122.437 0C121.057 0 119.938 1.11845 119.938 2.49812C119.938 3.8778 121.057 4.99625 122.437 4.99625Z" fill="#CFCFCF"/>
<path d="M202.53 104.309C181.194 104.309 159.475 103.443 139.159 97.7837C119.225 92.2522 100.922 81.5204 84.6079 69.1063C73.9272 61.0256 64.2151 54.6018 50.3479 55.5705C36.7701 56.3138 23.7924 61.4084 13.3349 70.1004C-4.30491 85.3951 -1.65384 114.022 5.40718 134.134C16.0115 164.417 48.2832 185.396 75.7115 199.111C107.397 214.941 142.218 224.117 177.115 229.42C207.704 234.059 247.011 237.449 273.522 217.464C297.866 199.111 304.545 157.203 298.58 128.908C297.134 120.542 292.683 112.991 286.064 107.674C268.959 95.1836 243.443 103.519 224.222 103.953C217.085 104.105 209.82 104.284 202.53 104.309Z" fill="#E6E6E6"/>
<path d="M150.324 279C202.005 279 243.901 276.387 243.901 273.163C243.901 269.939 202.005 267.325 150.324 267.325C98.6423 267.325 56.7461 269.939 56.7461 273.163C56.7461 276.387 98.6423 279 150.324 279Z" fill="#1E1E1E"/>
<path d="M190.071 8.46577L65.483 25.3108C61.4929 25.8503 58.6956 29.5222 59.2351 33.5123L83.396 212.21C83.9355 216.2 87.6075 218.998 91.5975 218.458L216.186 201.613C220.176 201.074 222.973 197.402 222.434 193.412L198.273 14.7137C197.733 10.7236 194.061 7.92629 190.071 8.46577Z" fill="#1E1E1E"/>
<path d="M231.462 34.6931H105.74C101.714 34.6931 98.4497 37.9572 98.4497 41.9836V222.307C98.4497 226.334 101.714 229.598 105.74 229.598H231.462C235.488 229.598 238.753 226.334 238.753 222.307V41.9836C238.753 37.9572 235.488 34.6931 231.462 34.6931Z" fill="white" stroke="#1E1E1E" stroke-linecap="round" stroke-linejoin="round"/>
<path d="M198.808 174.69H138.368C136.102 174.69 134.264 176.528 134.264 178.794V178.82C134.264 181.087 136.102 182.924 138.368 182.924H198.808C201.074 182.924 202.912 181.087 202.912 178.82V178.794C202.912 176.528 201.074 174.69 198.808 174.69Z" fill="#1E1E1E"/>
<path d="M196.642 208.338H138.649C137.96 208.338 137.4 208.898 137.4 209.587V209.97C137.4 210.66 137.96 211.219 138.649 211.219H196.642C197.331 211.219 197.891 210.66 197.891 209.97V209.587C197.891 208.898 197.331 208.338 196.642 208.338Z" fill="#1E1E1E"/>
<path d="M211.426 194.854H126.006C125.09 194.854 124.349 195.595 124.349 196.51C124.349 197.426 125.09 198.167 126.006 198.167H211.426C212.341 198.167 213.083 197.426 213.083 196.51C213.083 195.595 212.341 194.854 211.426 194.854Z" fill="#1E1E1E"/>
<path d="M227.053 40.6326H110.151C107.25 40.6326 104.899 42.9836 104.899 45.8837V147.262C104.899 150.162 107.25 152.513 110.151 152.513H227.053C229.953 152.513 232.304 150.162 232.304 147.262V45.8837C232.304 42.9836 229.953 40.6326 227.053 40.6326Z" fill="white" stroke="#1E1E1E" stroke-linecap="round" stroke-linejoin="round"/>
<path d="M184.202 121.082C185.034 121.062 185.841 120.79 186.515 120.3C187.189 119.811 187.698 119.128 187.975 118.342C188.252 117.557 188.283 116.705 188.064 115.902C187.845 115.098 187.387 114.38 186.751 113.843C181.434 109.439 174.731 107.056 167.827 107.117C160.923 107.178 154.263 109.677 149.024 114.174C148.393 114.709 147.939 115.424 147.724 116.223C147.508 117.022 147.541 117.868 147.818 118.648C148.094 119.428 148.602 120.106 149.272 120.591C149.943 121.075 150.746 121.345 151.573 121.363L184.202 121.082Z" fill="white" stroke="#1E1E1E" stroke-linecap="round" stroke-linejoin="round"/>
<path d="M205.028 95.5661L190.167 87.0011L205.028 78.4106" stroke="#1E1E1E" stroke-width="0.71" stroke-linecap="round" stroke-linejoin="round"/>
<path d="M130.951 95.5661L145.812 87.0011L130.951 78.4106" stroke="#1E1E1E" stroke-width="0.71" stroke-linecap="round" stroke-linejoin="round"/>
<path d="M49.4561 149.938V160.925" stroke="#1E1E1E" stroke-linecap="round" stroke-linejoin="round"/>
<path d="M43.9751 155.419H54.9618" stroke="#1E1E1E" stroke-linecap="round" stroke-linejoin="round"/>
<path d="M257.233 157.714C258.613 157.714 259.732 156.595 259.732 155.216C259.732 153.836 258.613 152.718 257.233 152.718C255.854 152.718 254.735 153.836 254.735 155.216C254.735 156.595 255.854 157.714 257.233 157.714Z" fill="#1E1E1E"/>
</svg>
